<?xml version="1.0" encoding="UTF-8"?>
<svg id="a" xmlns="http://www.w3.org/2000/svg" viewBox="0 0 503.47 226.87">
  <defs>
    <style>
      .cls-1 {
        fill: #a61e27;
      }

      .cls-2 {
        fill: #195090;
      }

      .cls-3 {
        fill: #6083b2;
      }

      .cls-4 {
        fill: #dc4c5d;
      }

      .cls-5 {
        fill: #185190;
      }

      .cls-6 {
        fill: #d41f35;
      }
    </style>
  </defs>
  <g>
    <path class="cls-5" d="M66.5196,173.25701c-.75999,4.16993-2.75996,5.95992-6.6999,5.95992-4.93992,0-7.43988-3.93994-7.43988-11.70983v-8.08987c0-7.87988,2.42996-11.70983,7.43988-11.70983,5.32992,0,6.4699,4.54993,6.6999,5.93991l.07.41999h12.83981l-.08999-.57999c-1.68998-11.03982-8.61987-17.11973-19.5197-17.11973-13.2598,0-20.86968,8.39987-20.86968,23.03966v8.08987c0,14.42977,7.79988,23.03966,20.86968,23.03966,11.50983,0,17.70973-5.43992,19.5197-17.11973l.08999-.57999h-12.82981l-.07.41-.01.00998Z"/>
    <polygon class="cls-5" points="98.51911 137.12756 85.08931 137.12756 85.08931 189.79675 118.7388 189.79675 118.7388 178.45693 98.51911 178.45693 98.51911 137.12756"/>
    <path class="cls-5" d="M137.34852,137.12756l-18.31972,52.66919h14.32977l2.69996-8.83986h15.20977l2.76996,8.83986h14.32978l-18.31971-52.66919h-12.69982ZM147.73836,169.62706h-8.14987l4.10994-13.09981,4.03993,13.09981Z"/>
    <path class="cls-5" d="M192.50767,157.88724c-6.5299-1.87998-8.84987-3.49995-8.84987-6.18991s1.91997-3.98994,5.41992-3.98994c4.48994,0,6.86989,1.20999,8.77986,4.46993l.27999.46999,10.03984-7.18989-.25999-.39999c-3.66994-5.68992-10.22984-8.68987-18.98971-8.68987-16.87975,0-18.69971,10.76984-18.69971,15.39976,0,8.42988,4.57993,13.49979,15.31976,16.94974,7.36988,2.38996,9.38986,3.77994,9.38986,6.48991s-2.18997,3.98994-6.1699,3.98994c-4.49993,0-7.46989-1.32998-9.93985-4.44993l-.28999-.36999-10.10985,7.08989.33.41999c4.80992,6.0599,11.10983,8.64986,21.05967,8.64986,11.60982,0,18.54972-5.94991,18.54972-15.92975,0-8.87987-4.29994-13.41979-15.85976-16.72974l.00002.00999Z"/>
    <path class="cls-5" d="M235.717,157.88724c-6.5299-1.87998-8.84987-3.49995-8.84987-6.18991s1.91997-3.98994,5.41992-3.98994c4.48994,0,6.86989,1.20999,8.77986,4.46993l.27999.46999,10.03984-7.18989-.25999-.39999c-3.66994-5.68992-10.22984-8.68987-18.98971-8.68987-16.87975,0-18.69971,10.76984-18.69971,15.39976,0,8.42988,4.57993,13.49979,15.31976,16.94974,7.36988,2.38996,9.38986,3.77994,9.38986,6.48991s-2.18997,3.98994-6.1699,3.98994c-4.49993,0-7.47988-1.32998-9.93985-4.44993l-.28999-.36999-10.10985,7.08989.33.41999c4.80992,6.0599,11.10983,8.64986,21.05967,8.64986,11.60982,0,18.54972-5.94991,18.54972-15.92975,0-8.87987-4.29994-13.41979-15.85976-16.72974l.00002.00999Z"/>
    <path class="cls-5" d="M297.33605,153.8773c0-10.64983-7.30989-16.74974-20.04968-16.74974h-19.9697v52.66919h13.42979v-19.5497h5.6099l8.60985,19.5497h14.74977l-10.45983-21.97966c5.27992-2.60996,8.06988-7.41988,8.06988-13.93979h.01001ZM270.75648,148.45739h5.03993c5.00993,0,8.10986.90999,8.10986,5.41992,0,4.23994-2.84996,5.03992-8.10986,5.03992h-5.03993v-10.45985.00002Z"/>
    <path class="cls-5" d="M323.49566,136.37757c-13.25981,0-20.86968,8.39987-20.86968,23.03964v8.08987c0,14.42977,7.79987,23.03966,20.86968,23.03966s20.86968-8.60987,20.86968-23.03966v-8.08987c0-14.63978-7.60987-23.03966-20.86968-23.03966v.00002ZM330.93555,159.41721v8.08987c0,7.87988-2.42996,11.70983-7.43989,11.70983s-7.43989-3.82994-7.43989-11.70983v-8.08987c0-7.87988,2.42996-11.70983,7.43989-11.70983s7.43989,3.82994,7.43989,11.70983Z"/>
    <path class="cls-5" d="M370.97494,136.37757c-13.25981,0-20.86968,8.39987-20.86968,23.03964v8.08987c0,14.42977,7.79987,23.03966,20.86968,23.03966s20.86968-8.60987,20.86968-23.03966v-8.08987c0-14.63978-7.60987-23.03966-20.86968-23.03966v.00002ZM378.41483,159.41721v8.08987c0,7.87988-2.42996,11.70983-7.43989,11.70983s-7.43989-3.82994-7.43989-11.70983v-8.08987c0-7.87988,2.42996-11.70983,7.43989-11.70983s7.43989,3.82994,7.43989,11.70983Z"/>
    <path class="cls-5" d="M440.42992,137.12758h-2.05601l-13.6298,25.6396-13.70979-25.6396h-12.32983v52.6692h12.67985v-27.39961l9.60983,18.8597h7.26988l9.82987-19.09967v27.63958h12.67979v-39.96027c-.98016-2.48809-4.05702-9.0624-10.34379-12.70893Z"/>
  </g>
  <g>
    <path class="cls-6" d="M131.09568,90.54502c27.21602,21.05537,43.04653-28.69769,6.62854-30.56927-18.09202-.93579-31.3491,10.52769-32.36288,30.88121-2.7294,53.34026,72.29009,33.76657,48.73928,9.04601-5.30284,11.15155-28.46374,17.54614-27.06004-10.37172,1.87158-37.04184,29.0876-15.51858,4.05511,1.01378"/>
    <path class="cls-6" d="M413.5152,98.2705c-69.17079,0-108.29209,46.91776-108.29209-13.75289,0-3.58721.15598-8.89005.4679-14.81674,1.48167.07798,2.96334.07798,4.523.07798,25.34442,0,20.0416-19.80764,20.0416-19.80764-8.03222,2.18352-15.75254,3.27528-23.00494,3.27528.77983-5.69275,1.71563-10.83961,3.04133-14.58279-8.26619-3.04133-16.22042-1.94957-20.82143,12.08734-5.30282-1.63764-10.13777-3.97713-14.66076-7.17442-5.22486,10.4497-.9358,18.71588,11.46349,23.00494-.70184,6.08266-1.01377,13.33507-1.01377,21.91318,0,52.56044,32.24753,35.1056,115.54449,35.82203,35.10811.30196,49.75979,11.46395,54.59944,28.02004,24.25264-19.41773,7.78683-54.06631-41.88825-54.06631"/>
    <path class="cls-6" d="M217.56459,91.30158c0-46.86769-59.26696-34.31245-51.15675-7.79828,8.42215-9.35794,29.32155-15.83052,31.89498,6.39459-31.89498-19.96361-50.76683,34.62438-9.74786,34.62438,6.94047,0,12.63322-1.55966,17.00026-4.44502,3.66519,3.66519,8.26619,4.28906,12.63322,2.65142-2.33947-4.28906-.62385-16.45438-.62385-31.42709M198.53679,92.31536c.07799.77983.07799,1.63764.07799,2.57344-.00001,39.84923-33.37667,14.73875-.07799-2.57344"/>
    <path class="cls-6" d="M244.47796,77.25749c0-8.73408,18.32597-2.96335,23.78477,3.66519,22.69301-22.84897-43.90434-32.90876-43.90434-2.7294,0,24.33065,34.5464,17.46816,34.5464,27.83988,0,9.59189-23.16091.62387-29.86743-4.75695-21.99116,22.14713,48.42734,37.50975,48.42734,2.80738.07799-21.91318-32.98673-18.09202-32.98673-26.8261"/>
    <path class="cls-1" d="M340.55699,113.72084c2.86419,2.79433,34.92911,0,16.76598-4.95993"/>
    <path class="cls-1" d="M370.24674,109.45949c3.0039,2.86419,35.55783.48901,17.53442-5.93795"/>
    <path class="cls-1" d="M399.2379,105.61729c.69858,4.61064,36.46598,5.09965,23.47237-2.58475"/>
    <path class="cls-1" d="M431.37267,106.94459c3.49291,7.47483,31.71565,14.11136,20.67802,2.30532"/>
    <path class="cls-1" d="M458.82698,124.61873c1.11771,12.85391,5.58866,13.27306,6.14752,5.86809"/>
    <path class="cls-2" d="M339.85841,113.72084c-2.16561-1.81631,6.98582-11.94576,10.40887-11.94576,3.42305-.06986,10.12944,7.89398,8.31313,9.78015-1.81632,1.88618-16.27696,4.19149-18.722,2.1656"/>
    <path class="cls-3" d="M343.42118,111.2758s0-.13971.13972-.41915c.06986-.27943.20957-.62873.41915-.97802.41915-.76844,1.04787-1.6766,1.88618-2.37518.76844-.76844,1.67659-1.39716,2.5149-1.74646.41915-.20958.76844-.27943.97801-.34929.27943-.06986.41915-.06986.41915-.06986,0,0,0,.13971-.13972.41915-.06986.27943-.20957.62873-.41915.97802-.41915.76844-1.04787,1.6766-1.88618,2.37518-.76844.76844-1.67659,1.39716-2.5149,1.74646-.41915.20958-.76844.27943-.97801.34929-.27945.06986-.41915.06986-.41915.06986"/>
    <path class="cls-2" d="M368.70985,108.97048c-2.37518-2.02589,7.96383-12.99363,11.73617-12.99363s11.03759,8.87199,8.94184,10.96774c-2.09573,2.02589-18.09326,4.33121-20.67802,2.02589"/>
    <path class="cls-3" d="M372.27262,105.96658s.06986-.13971.13972-.41915c.13972-.27943.27943-.62873.55886-1.04787.48902-.8383,1.3273-1.74646,2.23547-2.5149.90817-.76844,1.95602-1.46702,2.79433-1.81631.41915-.20958.83831-.34929,1.11774-.41915s.48902-.13971.48902-.13971c0,0-.06986.13971-.13972.41915-.13972.27943-.27943.62873-.55886,1.04787-.48902.8383-1.3273,1.74646-2.23547,2.5149s-1.95602,1.46702-2.79433,1.81631c-.41915.20958-.83831.34929-1.11774.41915-.27945.13971-.48902.13971-.48902.13971"/>
    <path class="cls-2" d="M398.53932,105.61729c-2.44504-2.5149,10.19931-14.0415,14.46064-13.69221s11.73617,11.10746,9.22129,13.27306c-2.58476,2.09575-20.88761,3.21348-23.68194.41915"/>
    <path class="cls-3" d="M402.66095,102.7531s.06986-.20958.27943-.48901c.20957-.34929.41915-.76844.83831-1.25745.69858-.97802,1.81632-2.09575,3.00392-3.14362,1.1876-.97802,2.51488-1.88617,3.56275-2.37518.55886-.27943.97803-.48901,1.32732-.62873s.55886-.20958.55886-.20958c0,0-.06984.20958-.27945.48901-.20957.34929-.41913.76844-.83831,1.25745-.69858.97802-1.8163,2.09575-3.0039,3.14362-1.1876.97802-2.5149,1.88617-3.56277,2.37518-.55886.27943-.97801.48901-1.3273.62873-.34929.20958-.55886.20958-.55886.20958"/>
    <path class="cls-2" d="M431.09326,106.94459c-1.53689-2.72447,11.8759-9.50072,15.43865-8.24327,3.56275,1.32731,7.40496,12.08548,4.75035,13.34292-2.72445,1.25745-18.51243-2.09574-20.189-5.09965"/>
    <path class="cls-3" d="M435.0053,105.96658s.13972-.13971.34929-.41915.55886-.55887.97803-.90816c.83831-.69858,2.09575-1.46702,3.35319-2.09575s2.6546-1.04787,3.77236-1.25745c.55886-.06986,1.04787-.13971,1.32732-.20958h.55886s-.13972.13971-.34929.41915-.55886.55887-.97803.90816c-.83831.69858-2.09575,1.46702-3.35319,2.09575-1.32732.62873-2.6546,1.04787-3.77236,1.25745-.55886.06986-1.04787.13971-1.32732.20958h-.55886"/>
    <path class="cls-2" d="M457.84895,117.49319c1.11771-1.88617,10.19928,3.70249,10.6883,6.3571.48902,2.65461-4.61063,8.94186-6.35708,7.82412-1.74646-1.18759-5.51882-12.01561-4.33122-14.18122"/>
    <path class="cls-3" d="M460.64328,120.9861s.06984-.06986.20957-.13971.34929-.13971.55886-.20958c.41913-.13971.97803-.06986,1.39716.06986.41913.20958.83831.55887,1.04787.97802.13972.20958.20957.41915.20957.55887.06984.13971.06984.27943.06984.27943,0,0-.06984.06986-.20957.13971-.13972.06986-.34929.13971-.55886.20958-.41913.13971-.97803.06986-1.39716-.13971s-.83831-.55887-1.04787-.97802c-.13972-.20958-.20957-.41915-.20957-.55887-.06984-.06986-.06984-.20958-.06984-.20958"/>
    <path class="cls-6" d="M75.52892,29.886c24.64258,0,40.08318,26.8261,4.13309,54.9779,31.817,10.9176,18.6379,41.40889-11.61944,41.40889-20.74343,0-33.14271-15.28464-33.14271-50.22095,0-22.92696,8.81206-27.29399,28.46374-18.40395-9.66987,22.92696-11.69743,58.33117,4.36704,58.33117,12.71121,0,13.88095-17.7021-8.50013-27.06004,29.86743-23.31687,22.30309-39.92722,15.51859-39.92722-11.07356,0-13.02314,17.54614-10.52768,26.20224-25.81232,8.57811-24.95451-45.30803,11.30751-45.30803Z"/>
    <path class="cls-4" d="M136.08659,63.71892s-.77983.15597-2.10553.38991c-.70184.07798-1.48167.31193-2.33949.54588-.4679.15597-.93579.23395-1.40369.38991s-1.01378.38991-1.48167.62386c-.23395.07798-.54588.23395-.77983.31193-.23395.07798-.54588.31193-.77983.38991-.54588.31193-1.09176.54588-1.63764.85781-1.01378.77983-2.18352,1.40369-3.1973,2.33949-1.09176.85781-2.02755,1.94957-3.04133,2.96335-.4679.54588-.93579,1.16974-1.40369,1.71562s-.77983,1.24773-1.24772,1.87159c-.23395.31193-.38991.62387-.62387.93579l-.54588,1.01378c-.31193.70185-.77983,1.24772-1.01378,1.94957-.31193.70185-.62387,1.32571-.85781,2.02755-.31193.62387-.4679,1.32571-.77983,2.02755-.54588,1.32571-.85781,2.65142-1.24772,3.89914-.23395.62387-.31193,1.24772-.4679,1.87159-.15596.62387-.31193,1.16974-.38991,1.71562-.23395,1.09176-.38991,2.18352-.54588,3.11931s-.23395,1.71562-.38991,2.41747c-.15596,1.32571-.31193,2.10553-.31193,2.10553,0,0-.07798-.77983-.15596-2.10553,0-.70185-.15596-1.48168-.07798-2.49545,0-.93579,0-2.02755.07798-3.1973.15596-1.16974.15596-2.49545.4679-3.82116.23395-1.32571.4679-2.80738.93579-4.21107.23395-.70185.38991-1.48168.70185-2.18352s.54588-1.48168.85781-2.18352c.23395-.77983.70185-1.40369,1.01378-2.18352l.54588-1.09176c.15596-.38991.38991-.70185.62387-1.01378.4679-.70185.85781-1.40369,1.40369-2.02755.54588-.62386,1.01378-1.24772,1.55966-1.87159.54588-.62387,1.16974-1.09176,1.71562-1.63764s1.16974-1.01378,1.79361-1.48168c1.16974-1.01378,2.57344-1.63764,3.74318-2.2615,1.32571-.4679,2.49545-1.09176,3.6652-1.32571.62387-.15597,1.16974-.23395,1.71562-.38991.54588-.07798,1.09176-.07798,1.55966-.15597.4679-.07798.93579-.07798,1.32571-.15597h1.16974c1.16973.23397,1.94956.31195,1.94956.31195ZM139.59581,89.29729c.31193-.15596.70184-.31193,1.09176-.54588s.77983-.4679,1.24773-.77983c.38991-.31193.85782-.70185,1.24773-1.09176s.77983-.85781,1.16974-1.32571c.15596-.23395.38991-.4679.54588-.77983l.4679-.77983c.31193-.54588.4679-1.09176.70184-1.71562.23395-.54588.31193-1.16974.38991-1.71562s.07799-1.09176.15596-1.63764c.07799-.54588-.07799-1.01378-.07799-1.48168-.07799-.4679-.07799-.85781-.23395-1.16974-.07799-.31193-.23395-.62387-.31193-.85781-.15596-.4679-.31193-.77983-.31193-.77983,0,0-.07799.31193-.23395.77983-.07799.23395-.15596.54588-.15596.93579-.07799.38991-.15596.70185-.23395,1.09176s-.15596.77983-.31193,1.24772c-.15596.4679-.23395.85781-.38991,1.32571s-.31193.93579-.54588,1.40369c-.23395.4679-.38991.93579-.62387,1.40369l-.31193.70185-.38991.62387c-.23395.4679-.54588.85781-.77983,1.24772-.31193.38991-.54588.77983-.85782,1.16974-.31193.38991-.54588.70185-.77983,1.01378-.54588.62387-1.01378,1.16974-1.32571,1.55966s-.54588.62387-.54588.62387c0,0,.31193,0,.77983-.15596-.00001-.078.31191-.15598.62385-.31195ZM151.05929,108.40309c-.31193.15596-.62387.38991-1.01378.62387-.70184.38991-1.55966.85781-2.49545,1.32571-.93579.38991-1.87158.85781-2.88536,1.16974-2.02756.70185-4.13309,1.24772-5.77073,1.71562-.85782.23395-1.55966.38991-2.02756.54588s-.77983.23395-.77983.23395c0,0,.31193.07798.77983.23395s1.24773.31193,2.10553.38991c.4679.07798.93579.07798,1.48167.07798s1.09176,0,1.63764-.07798,1.16974-.15596,1.71562-.23395c.62387-.07798,1.16974-.31193,1.79361-.4679.54588-.23395,1.16974-.4679,1.71562-.77983.54588-.23395,1.01378-.62387,1.55966-.93579.4679-.38991.93579-.70185,1.24773-1.09176.38991-.38991.70184-.70185,1.01378-1.09176.31193-.31193.54588-.70185.70184-1.01378.23395-.31193.31193-.62387.4679-.85781.23395-.4679.31193-.77983.31193-.77983,0,0-.31193.15596-.70184.38991-.23395.31193-.54589.4679-.85782.62387ZM181.53652,89.27403c-.54588.07798-1.16974,0-1.79361.15596s-1.40369.23395-2.10553.62387c-.38991.15596-.70184.31193-1.09176.4679-.38991.23395-.70184.38991-1.09176.62387s-.70184.4679-1.01378.77983c-.31193.31193-.70184.54588-1.01378.93579-.31193.31193-.62387.70185-.93579,1.01378l-.77983,1.09176c-.31193.38991-.4679.77983-.70184,1.16974-.23395.38991-.4679.77983-.62387,1.16974s-.31193.77983-.4679,1.16974-.23395.77983-.38991,1.16974c-.23395.77983-.38991,1.55966-.54588,2.33949-.07799.77983-.23395,1.48168-.23395,2.10553v1.79361c0,.54588.07799,1.01378.15596,1.32571.15596.77983.23395,1.16974.23395,1.16974,0,0,.15596-.38991.31193-1.16974.07799-.38991.23395-.77983.31193-1.24772.15596-.4679.31193-1.01378.4679-1.63764.15596-.62387.38991-1.24772.62387-1.87159s.4679-1.32571.77983-2.02755c.15596-.31193.31193-.70185.4679-1.01378.15596-.31193.38991-.70185.54588-1.01378.15596-.38991.38991-.70185.54588-1.01378.23395-.31193.38991-.70185.62387-1.01378l.62387-.93579c.23395-.31193.4679-.54588.70184-.85781.23395-.31193.54588-.54588.77983-.77983s.4679-.54588.77983-.77983.54588-.4679.85782-.70185c.31193-.23395.54588-.38991.85782-.54588.54588-.38991,1.16974-.62387,1.63764-.93579.23395-.15596.54588-.23395.77983-.31193s.4679-.15596.70184-.31193c.4679-.23395.93579-.31193,1.24773-.38991.70184-.15596,1.16974-.31193,1.16974-.31193,0,0-.38991-.07798-1.16974-.15596-.23396,0-.70186-.07798-1.24774-.07798ZM204.69743,88.80614c-.23395-1.24772-.54588-2.49545-.93579-3.58721-.31193-1.09176-.70184-2.02755-1.09176-2.88536-.31193-.85781-.70184-1.55966-1.01378-2.18352s-.62387-1.01378-.77983-1.32571c-.15596-.31193-.31193-.4679-.31193-.4679,0,0,.23395.70185.54588,1.94957.15596.62387.38991,1.40369.54588,2.2615.07799.4679.23395.93579.31193,1.40369.07799.4679.23395,1.01378.31193,1.55966.07799.54588.15596,1.09176.23395,1.71562.07799.54588.15596,1.16974.23395,1.79361.15596,1.24772.15596,2.57344.23395,3.89914.07799,2.7294,0,5.61476-.4679,8.50013-.15596,1.40369-.4679,2.80738-.77983,4.21107-.38991,1.32571-.77983,2.7294-1.24773,3.89914-.54588,1.24772-1.09176,2.41747-1.71562,3.43125-.70184,1.01378-1.32571,1.94957-2.10553,2.65142s-1.48167,1.32571-2.2615,1.79361c-.38991.23395-.70184.38991-1.09176.54588-.31193.15596-.70184.31193-1.01378.38991-.31193.07798-.54588.15596-.85782.23395-.23395.07798-.4679.07798-.62387.15596-.31193.07798-.54588.07798-.54588.07798,0,0,.15596,0,.54588.07798.15596,0,.38991,0,.62387.07798.23395,0,.54588,0,.85782-.07798.31193,0,.70184-.07798,1.09176-.15596s.85782-.23395,1.24773-.38991c.4679-.15596.93579-.38991,1.40369-.62387s.93579-.54588,1.40369-.93579c1.94957-1.40369,3.66519-3.66519,4.91292-6.31661.62387-1.32571,1.16974-2.7294,1.55966-4.21107.38991-1.48168.70184-2.96335.93579-4.52301.15596-1.55966.31193-3.04133.31193-4.60099.07799-1.48168-.07799-2.96335-.15596-4.44502.15596-1.24774-.07799-2.57345-.31194-3.89915ZM189.33481,63.30575c-.62387-.07798-1.55966-.15597-2.65141-.15597s-2.41747.15597-3.74318.38991c-.70184.15597-1.40369.31193-2.10553.54588-.70184.15597-1.40369.4679-2.10553.77983-.70184.23395-1.40369.62386-2.02756,1.01378s-1.24773.77983-1.87158,1.24772c-.54588.4679-1.09176.93579-1.55966,1.40369-.4679.54588-.85782,1.01378-1.16974,1.48168-.31193.54588-.54588,1.01378-.77983,1.40369s-.23395.77983-.38991,1.09176c-.15596.62386-.23395,1.01378-.23395,1.01378,0,0,.23395-.23395.70184-.77983.07799-.15597.23395-.23395.31193-.38991.15596-.15597.23395-.31193.38991-.4679.31193-.31193.70184-.62386,1.01378-.93579.38991-.31193.85782-.62386,1.32571-1.01378.4679-.31193,1.01378-.62386,1.55966-.93579s1.16974-.62386,1.71562-.85781c.62387-.23395,1.24773-.62386,1.87158-.77983.62387-.23395,1.24773-.54588,1.94957-.77983.62387-.23395,1.24773-.4679,1.87158-.70185,1.24773-.4679,2.41747-.77983,3.43124-1.16974,1.01378-.31193,1.87158-.62386,2.49545-.85781s.93579-.31193.93579-.31193c0,0-.23393-.15596-.93577-.23395ZM322.06738,55.50799c-1.01377.15597-2.02756.23395-3.04133.31193s-2.02756.23395-3.04133.23395-2.02756.15597-3.04133.15597-2.02756.07798-3.04133,0-2.02756-.07798-3.04133-.07798l-3.04133-.23395-2.96334-.31193-2.96334-.4679c-1.01377-.23395-1.94957-.38991-2.96334-.62386s-1.94957-.4679-2.96334-.70185c-.9358-.31193-1.94957-.54588-2.88537-.85781s-1.94957-.54588-2.88537-.93579c-.9358-.31193-1.94957-.62386-2.88537-1.01378-.9358-.31193-1.87158-.70185-2.88537-1.09176l-2.88537-1.09176-.9358-.31193-.07799.85781v1.94957c.07799.62386.07799,1.32571.23394,1.94957.15598.62386.31193,1.24772.62385,1.87159.31193.54588.62385,1.16974,1.16974,1.55966-.38991-.4679-.62385-1.09176-.77983-1.71562s-.23394-1.16974-.23394-1.7936,0-1.24772.07799-1.7936c0-.31193.07799-.54588.07799-.85781,1.55966.85781,3.11931,1.63764,4.75696,2.33949.9358.4679,1.87158.85781,2.88537,1.24772.9358.38991,1.94957.77983,2.96334,1.09176,1.01377.38991,1.94957.70185,2.96334.93579,1.01377.31193,2.02756.54588,3.04133.77983s2.02756.4679,3.11931.62386l3.11931.4679c1.01377.07798,2.10555.23395,3.11931.23395l3.11931.07798c1.01377,0,2.10555-.07798,3.11931-.07798,1.01377-.07798,2.10555-.23395,3.11931-.31193s2.02756-.31193,3.11931-.4679c1.01377-.15597,2.02756-.38991,3.04133-.62386s2.02756-.4679,3.04133-.77983c1.01377-.31193,1.94957-.62386,2.96334-.93579-1.09173.15596-2.1055.23394-3.11929.38991ZM295.6312,47.78769c.31193-.31193.70184-.70185,1.16974-1.16974.23394-.23395.4679-.4679.77983-.70185.23394-.23395.54589-.54588.85782-.77983.62385-.54588,1.16974-1.09176,1.7936-1.63764.31193-.31193.62385-.54588.9358-.77983.31193-.23395.62385-.4679.9358-.70185.31193-.23395.62385-.38991.9358-.62386.31193-.15597.54589-.38991.85782-.4679.31193-.15597.54589-.31193.77983-.38991s.4679-.23395.62385-.31193c.38991-.15597.62385-.23395.62385-.23395,0,0-.23394-.15597-.62385-.31193-.15598-.07798-.4679-.15597-.77983-.23395-.31193-.07798-.62385-.07798-1.01377-.07798s-.77983.07798-1.24773.15597c-.38991.15597-.85782.23395-1.24773.38991-.85782.38991-1.71563.93579-2.41747,1.55966-.38991.31193-.70184.62386-1.01377,1.01378-.31193.31193-.62385.77983-.85782,1.09176-.23394.38991-.4679.77983-.62385,1.16974-.15598.38991-.31193.70185-.4679,1.09176-.15598.31193-.23394.70185-.23394.93579-.07799.31193-.07799.54588-.07799.77983v.70185s-.00002-.15597.3119-.4679ZM293.44769,103.07753c-.15598-.31193-.31193-.70185-.4679-1.09176s-.31193-.77983-.4679-1.24772c-.15598-.4679-.23394-.85781-.38991-1.32571-.07799-.4679-.23394-.93579-.31193-1.48168-.15598-.4679-.15598-1.01378-.31193-1.55966-.07799-.23395-.07799-.54588-.15598-.77983,0-.31193-.07799-.54588-.07799-.85781-.15598-1.09176-.23394-2.2615-.31193-3.50923-.07799-1.16974-.15598-2.41747-.15598-3.58721-.07799-1.24772,0-2.41747-.07799-3.66519v-3.58721c.07799-1.16974,0-2.2615,0-3.35326v-3.04133c0-1.87159-.07799-3.43125-.07799-4.523-.07799-1.09176-.07799-1.71562-.07799-1.71562,0,0-.70184,2.41747-1.32572,6.08266-.31193,1.87159-.62385,4.05511-.85782,6.31661-.07799,1.16974-.23394,2.41747-.23394,3.58721-.07799,1.24772-.07799,2.49545-.07799,3.74318s.07799,2.49545.23394,3.74318c.15598,1.24772.31193,2.49545.62385,3.66519.07799.62387.23394,1.16974.38991,1.71562.15598.54588.31193,1.09176.54589,1.63764.23394.54588.38991,1.01378.54589,1.48168.23394.4679.4679.93579.70184,1.32571.38991.85781.9358,1.55966,1.40368,2.2615.4679.62387.9358,1.16974,1.32572,1.55966.77983.77983,1.24773,1.16974,1.24773,1.16974,0,0-.31193-.54588-.85782-1.48168-.15593-.23395-.46785-.85782-.77978-1.48168ZM229.34928,77.49144c.15596-.38991.31193-.85781.4679-1.40369.23395-.54588.4679-1.16974.85782-1.71562.31193-.62386.77983-1.24772,1.24773-1.87159.54588-.62386,1.01378-1.24772,1.63763-1.7936.31193-.31193.62385-.62386.9358-.85781.31193-.31193.70184-.54588,1.09176-.85781.38991-.23395.77983-.54588,1.09176-.77983l1.16974-.70185c.38991-.23395.85782-.38991,1.24773-.62386.38991-.15597.85782-.4679,1.24773-.54588.85782-.31193,1.71563-.70185,2.57342-.93579.38991-.15597.85782-.23395,1.24773-.38991s.85782-.23395,1.24773-.31193c.77983-.23395,1.55966-.38991,2.2615-.54588s1.40368-.31193,1.94957-.4679c.62385-.07798,1.09176-.23395,1.55966-.31193.85782-.15597,1.32572-.31193,1.32572-.31193,0,0-.4679-.07798-1.32572-.23395-.4679-.07798-.9358-.15597-1.55966-.15597-.62385-.07798-1.32572-.07798-2.10555-.07798h-1.16974c-.38991,0-.85782.07798-1.24773.15597-.4679.07798-.85782.07798-1.32572.15597s-.9358.15597-1.40368.31193c-.9358.15597-1.87158.4679-2.88537.77983-.4679.15597-.9358.38991-1.40368.54588-.4679.23395-.9358.38991-1.40368.70185l-1.32572.77983c-.4679.31193-.85782.62386-1.24773.93579s-.77983.70185-1.16974,1.01378c-.38991.38991-.70184.70185-1.01378,1.09176-.31193.38991-.62387.77983-.85782,1.16974s-.4679.77983-.70184,1.16974c-.38991.77983-.77983,1.55966-.93579,2.33949-.23395.70185-.31193,1.48168-.4679,2.10554-.07799.62387-.07799,1.16974-.07799,1.63764.07799.93579.15596,1.40369.15596,1.40369,0,0,.15599-.54588.31195-1.40369ZM246.42753,85.8356h-.85782s.23394.15596.70184.4679,1.09176.62387,1.94957,1.09176c1.63764.85781,3.82115,1.71562,6.00469,2.41747,2.2615.70185,4.523,1.24772,6.31661,1.48168.85782.15596,1.63764.23395,2.18351.23395h.85782s-.23394-.23395-.70184-.54588-1.09176-.70185-1.87158-1.16974c-1.55966-.93579-3.74317-1.87159-6.00469-2.57344-2.2615-.70185-4.60098-1.24772-6.3946-1.40369h-2.18351ZM258.12496,112.42775c-1.40368.54588-2.96334.85781-4.60098.85781-1.55966.07798-3.1973-.07798-4.75696-.31193s-3.1973-.62387-4.75696-1.01378c-1.55966-.38991-3.11931-.93579-4.67897-1.48168s-3.11931-1.09176-4.67897-1.71562-3.04133-1.24772-4.52301-1.94957l-1.24773-.62387-.31193,1.24772c-.07799.23395-.07799.38991-.07799.54588l-.07799.54588c0,.31193-.07799.70185-.07799,1.01378,0,.70185.07799,1.40369.31193,2.02755.15596.70185.54588,1.32571,1.01378,1.79361.23395.23395.54588.4679.85782.62387s.62387.23395.93579.31193c-.4679-.38991-.85782-.85781-1.09176-1.40369-.23395-.54588-.31193-1.09176-.31193-1.55966,0-.54588.07799-1.09176.15596-1.63764,0-.07798.07799-.23395.07799-.31193,1.09176.62387,2.2615,1.16974,3.43124,1.63764,1.55966.70185,3.11931,1.32571,4.75696,1.87159,1.63764.62387,3.27529,1.09176,4.91291,1.48168,1.63764.38991,3.35325.77983,5.06888.93579s3.50923.23395,5.30282.07798c1.7936-.23395,3.58722-.62387,5.14687-1.48168.77983-.4679,1.55966-1.01378,2.18351-1.63764.62385-.62386,1.16974-1.40369,1.55966-2.18352.85782-1.55966,1.16974-3.27528,1.16974-4.9909-.4679,1.63764-1.09176,3.1973-2.02756,4.44502-.93576,1.32572-2.26147,2.3395-3.66516,2.88538ZM73.26742,34.79892c.38991-.07798.77983-.15597,1.09176-.15597.62387-.07798,1.16974-.15597,1.55966-.15597.38991-.07798.54588-.07798.54588-.07798,0,0-.15596,0-.54588-.07798s-.85781-.15597-1.55966-.23395c-.31193,0-.70185-.07798-1.09176-.07798s-.85781-.07798-1.32571,0c-.4679,0-1.01378.07798-1.48168.07798-.54588.07798-1.09176.15597-1.63764.23395-.31193,0-.54588.15597-.85781.15597l-.93579.23395c-.31193.07798-.62386.15597-.93579.31193-.31193.07798-.62386.23395-.93579.31193s-.62386.31193-.93579.38991c-.31193.15597-.62386.31193-.93579.4679s-.62386.38991-.93579.54588c-.15597.07798-.31193.15597-.4679.31193-.15597.07798-.31193.23395-.4679.31193-.31193.23395-.62386.4679-.93579.62386-.31193.23395-.62386.4679-.85781.70185-.62386.4679-1.16974,1.01378-1.71562,1.55966-1.09176,1.16974-2.10554,2.41747-2.96335,3.74318-.85781,1.32571-1.63764,2.7294-2.18352,4.21107-.62386,1.40369-1.09176,2.88536-1.40369,4.36704-.38991,1.40369-.54588,2.88537-.70185,4.21107-.07798,1.32571-.07798,2.65142,0,3.82116.07798,1.16974.31193,2.2615.54588,3.1973.07798.23395.15597.4679.23395.70185s.15597.38991.23395.62386c.15597.38991.31193.70185.4679,1.01378.15597.31193.31193.54588.4679.77983.07798.07798.15597.23395.23395.31193s.15597.15597.23395.23395l.38991.38991s-.07798-.15597-.23395-.4679c-.07798-.07798-.07798-.15597-.15597-.23395-.07798-.07798-.07798-.23395-.15597-.31193-.07798-.23395-.23395-.4679-.23395-.77983-.07798-.31193-.15597-.62386-.23395-1.01378,0-.15597-.07798-.38991-.07798-.62386s-.07798-.38991-.07798-.62386c-.07798-.85781-.07798-1.87159,0-2.96335.07798-.54588.07798-1.09176.15597-1.71562.07798-.62386.15597-1.16974.31193-1.7936.23395-1.24772.54588-2.49545.93579-3.82116.07798-.31193.23395-.62386.31193-1.01378.07798-.31193.23395-.62386.31193-1.01378.31193-.62386.54588-1.32571.85781-1.94957.54588-1.32571,1.24772-2.57343,2.02755-3.74318l.62386-.93579c.23395-.31193.38991-.54588.62386-.85781l.31193-.4679.31193-.38991c.23395-.23395.4679-.54588.70185-.77983.23395-.23395.4679-.4679.70185-.77983l.38991-.38991.38991-.31193c.23395-.23395.4679-.4679.77983-.70185.23395-.23395.54588-.38991.77983-.62386l.38991-.31193.38991-.31193c.23395-.15597.54588-.38991.77983-.54588.54588-.31193,1.09176-.62386,1.63764-.93579.31193-.15597.54588-.23395.85781-.38991.23395-.15597.54588-.31193.77983-.38991.54588-.23395,1.09176-.4679,1.55966-.62386.54588-.15597,1.01378-.31193,1.48168-.4679.4679-.07798.93579-.23395,1.40369-.31193.31193-.31193.77982-.38992,1.16974-.4679ZM85.74468,54.91849c-.07798-.4679-.15596-.85781-.15596-1.09176-.07798-.23395-.07798-.38991-.07798-.38991,0,0,0,.15597-.07798.38991s-.15596.62386-.23395,1.09176-.23395,1.01378-.31193,1.71562c-.07798.62386-.31193,1.40369-.38991,2.18352-.15596.77983-.31193,1.63764-.62387,2.49545-.23395.85781-.4679,1.7936-.77983,2.7294-.15596.4679-.31193.93579-.4679,1.40369-.07798.23395-.15596.4679-.23395.70185s-.15596.4679-.31193.70185c-.07798.23395-.15596.4679-.31193.70185-.07798.23395-.23395.4679-.31193.70185-.23395.4679-.38991.93579-.70185,1.40369-.23395.4679-.4679.93579-.70185,1.40369s-.54588.93579-.77983,1.32571c-.23395.4679-.54588.85781-.77983,1.32571-.31193.38991-.54588.85781-.77983,1.24772-.31193.38991-.54588.77983-.85781,1.16974s-.54588.77983-.85781,1.16974-.54588.70185-.77983,1.09176c-.23395.31193-.4679.70185-.77983,1.01378-.54588.62387-.93579,1.24772-1.40369,1.71562-.38991.54588-.77983.93579-1.09176,1.32571s-.54588.70185-.70185.85781c-.15597.23395-.23395.31193-.23395.31193,0,0,.15597-.07798.31193-.23395.23395-.15596.54588-.31193.93579-.62387.38991-.23395.93579-.54588,1.48168-1.01378.54588-.38991,1.16974-.85781,1.79361-1.40369s1.32571-1.16974,2.02755-1.79361c.38991-.31193.70185-.70185,1.01378-1.09176s.70185-.77983,1.01378-1.16974.62387-.85781,1.01378-1.24772c.15596-.23395.31193-.4679.4679-.62387.15596-.23395.31193-.4679.4679-.70185.31193-.4679.62387-.93579.93579-1.40369.23395-.4679.54588-1.01378.77983-1.48168.31193-.4679.4679-1.01378.70185-1.55966.07798-.23395.23395-.54588.31193-.77983s.15596-.54588.31193-.77983c.38991-1.01378.62387-2.10554.93579-3.11931.23395-1.01378.38991-2.02755.4679-3.04133.07798-.93579.07798-1.87159.15596-2.7294,0-.85781,0-1.63764-.07798-2.2615-.15596-.54586-.23394-1.16973-.31193-1.63762ZM82.15747,104.20364c-.15596-.54588-.38991-1.09176-.54588-1.48168-.07798-.23395-.23395-.38991-.31193-.62387-.07798-.15596-.23395-.31193-.31193-.4679-.15596-.31193-.31193-.4679-.4679-.62387-.07798-.15596-.15596-.23395-.15596-.23395v.31193c0,.15596.07798.4679.07798.77983,0,.15596,0,.31193.07798.54588v2.10554c0,.54588,0,1.09176-.07798,1.71562-.07798.62386-.07798,1.24772-.23395,1.87159-.07798.31193-.15596.62387-.15596.93579-.07798.31193-.15596.62387-.23395,1.01378-.15596.62387-.38991,1.32571-.62387,1.94957s-.54588,1.24772-.77983,1.79361c-.15596.31193-.31193.54588-.4679.85781-.15596.23395-.31193.54588-.54588.77983-.38991.4679-.77983.93579-1.16974,1.32571l-.31193.31193c-.07798.07798-.23395.15596-.31193.23395-.23395.15596-.38991.31193-.62387.4679s-.38991.31193-.62387.38991c-.23395.15596-.38991.23395-.62387.31193-.15596.07798-.38991.15596-.54588.31193-.15596.07798-.31193.15596-.4679.23395-.31193.15596-.54588.23395-.70185.31193-.15596.07798-.23395.07798-.23395.07798,0,0,.07798,0,.23395.07798.15596,0,.4679.07798.77983.07798h1.24772c.23395,0,.4679-.07798.77983-.15596.23395-.07798.54588-.15596.85781-.23395.54588-.23395,1.16974-.4679,1.79361-.85781s1.24772-.85781,1.71562-1.40369c.54588-.54588,1.09176-1.16974,1.48168-1.87159.4679-.70185.77983-1.40369,1.09176-2.18352s.4679-1.55966.62387-2.33949c.15597-.77983.23395-1.55966.23395-2.33949s-.07798-1.48168-.15596-2.18352c0-.62385-.15597-1.24771-.31193-1.7936ZM41.84034,65.75811c.23395-1.24772.4679-2.33949.77983-3.27528s.62386-1.7936.93579-2.41747c.31193-.62386.70185-1.09176.93579-1.32571.15597-.15597.23395-.23395.31193-.31193.07798-.07798.15597-.07798.15597-.07798,0,0-.07798,0-.15597.07798-.07798,0-.23395.07798-.38991.23395-.31193.23395-.85781.62386-1.32571,1.16974-.4679.62386-1.01378,1.40369-1.48167,2.33949s-.93579,2.02755-1.32571,3.27528c-.77983,2.41747-1.40369,5.38082-1.7936,8.57811-.15597,1.55966-.31193,3.1973-.38991,4.91292-.07798,1.63764-.07798,3.35326,0,5.06888s.23395,3.43125.38991,5.06888c.15597,1.63764.4679,3.27528.70185,4.83493.62386,3.11931,1.40369,6.00468,2.18352,8.42215.38991,1.16974.85781,2.2615,1.24773,3.27528.38991.93579.77983,1.79361,1.09176,2.41747.31193.70185.62386,1.16974.77983,1.55966.15597.31193.31193.54588.31193.54588,0,0-.23395-.77983-.54588-2.2615-.31193-1.40369-.77983-3.43125-1.32571-5.92669-.4679-2.41747-.93579-5.30284-1.32571-8.34416-.15597-1.55966-.38991-3.11931-.4679-4.75695-.15597-1.63764-.23395-3.27528-.31193-4.91292-.07798-1.63764-.07798-3.27528-.07798-4.91292s.07798-3.1973.07798-4.75695c.23395-3.19729.54588-6.08266,1.01378-8.50012Z"/>
  </g>
</svg>