<?xml version="1.0" encoding="UTF-8"?>
<svg id="Layer_1" xmlns="http://www.w3.org/2000/svg" version="1.1" viewBox="0 0 158.5 147.7">
  <!-- Generator: Adobe Illustrator 29.1.0, SVG Export Plug-In . SVG Version: 2.1.0 Build 142)  -->
  <defs>
    <style>
      .st0 {
        fill: #c80;
        stroke: #fff;
        stroke-miterlimit: 10;
      }
    </style>
  </defs>
  <path class="st0" d="M90.4,104.6c-1.2,1-2.5-.2-3.7-.8-16.1-8.3-31.7-19.7-47.8-28.2l-.8-1.1,18.7-20.3,26.5,26,1.7.4L117.7,15.8l29.2,18.7-56.5,70.1Z"/>
  <path class="st0" d="M103,27.7c-3.5-1.1-6.8-3.1-10.5-4.2C45.4,9.8,11.2,65.1,38.1,104.4c27.2,39.7,86.8,20.6,90.4-26.4.3-3.9-1.5-9.1,2.5-11.3,3.1,21-8.2,42.1-23.8,55.5C60.3,162.7,0,109.1,25.6,56.1c9.8-20.3,32.5-39.4,56.2-37.8s16.3,2.9,22.1,7.2l-.9,2.2Z"/>
</svg>